<?xml version="1.0" encoding="UTF-8"?>
<svg id="_레이어_2" data-name="레이어 2" xmlns="http://www.w3.org/2000/svg" xmlns:xlink="http://www.w3.org/1999/xlink" viewBox="0 0 509 553.75">
  <defs>
    <style>
      .cls-1 {
        font-family: ArialMT, Arial;
        font-size: 10px;
      }

      .cls-2, .cls-3, .cls-4, .cls-5, .cls-6, .cls-7, .cls-8, .cls-9, .cls-10, .cls-11, .cls-12, .cls-13, .cls-14, .cls-15, .cls-16, .cls-17, .cls-18, .cls-19, .cls-20, .cls-21, .cls-22, .cls-23, .cls-24, .cls-25, .cls-26, .cls-27, .cls-28, .cls-29, .cls-30, .cls-31, .cls-32, .cls-33 {
        fill: none;
      }

      .cls-2, .cls-4, .cls-5, .cls-6, .cls-7, .cls-10, .cls-11, .cls-12, .cls-14, .cls-15, .cls-16, .cls-17, .cls-18, .cls-19, .cls-20, .cls-21, .cls-25, .cls-27, .cls-28, .cls-29, .cls-30, .cls-31, .cls-32, .cls-33 {
        stroke-miterlimit: 2;
      }

      .cls-2, .cls-16, .cls-18, .cls-19, .cls-33 {
        stroke-width: .36px;
      }

      .cls-2, .cls-17 {
        stroke: #5f68a7;
      }

      .cls-34 {
        clip-path: url(#clippath-45);
      }

      .cls-35 {
        clip-path: url(#clippath-20);
      }

      .cls-36 {
        clip-path: url(#clippath-11);
      }

      .cls-37 {
        clip-path: url(#clippath-16);
      }

      .cls-38 {
        fill: #fff;
      }

      .cls-39 {
        clip-path: url(#clippath-59);
      }

      .cls-3, .cls-8, .cls-23, .cls-24 {
        stroke-width: 1.5px;
      }

      .cls-3, .cls-8, .cls-28, .cls-33 {
        stroke: #0a1778;
      }

      .cls-40 {
        clip-path: url(#clippath-33);
      }

      .cls-41 {
        clip-path: url(#clippath-47);
      }

      .cls-42, .cls-43 {
        fill: #44805c;
      }

      .cls-42, .cls-44 {
        fill-rule: evenodd;
      }

      .cls-45 {
        clip-path: url(#clippath-41);
      }

      .cls-46 {
        clip-path: url(#clippath-32);
      }

      .cls-4 {
        stroke-width: .36px;
      }

      .cls-4, .cls-6, .cls-7, .cls-9, .cls-10, .cls-13, .cls-14, .cls-23, .cls-24, .cls-26 {
        stroke: #44805c;
      }

      .cls-5, .cls-14, .cls-21, .cls-29, .cls-32 {
        stroke-width: .36px;
      }

      .cls-5, .cls-20 {
        stroke: #a6c2b1;
      }

      .cls-6 {
        stroke-width: .36px;
      }

      .cls-7, .cls-20, .cls-27, .cls-30, .cls-31 {
        stroke-width: .36px;
      }

      .cls-8, .cls-9, .cls-13, .cls-23, .cls-26 {
        stroke-miterlimit: 20;
      }

      .cls-47 {
        clip-path: url(#clippath-2);
      }

      .cls-48 {
        clip-path: url(#clippath-13);
      }

      .cls-9 {
        stroke-width: 1.5px;
      }

      .cls-49 {
        clip-path: url(#clippath-37);
      }

      .cls-10 {
        stroke-width: .36px;
      }

      .cls-50 {
        clip-path: url(#clippath-46);
      }

      .cls-51 {
        clip-path: url(#clippath-25);
      }

      .cls-11, .cls-12, .cls-17, .cls-25, .cls-28 {
        stroke-width: .36px;
      }

      .cls-11, .cls-18 {
        stroke: #b4b8d6;
      }

      .cls-52 {
        clip-path: url(#clippath-15);
      }

      .cls-53 {
        clip-path: url(#clippath-6);
      }

      .cls-12, .cls-16 {
        stroke: #8a90be;
      }

      .cls-54 {
        clip-path: url(#clippath-40);
      }

      .cls-55 {
        clip-path: url(#clippath-26);
      }

      .cls-13 {
        stroke-width: 1.5px;
      }

      .cls-56 {
        clip-path: url(#clippath-7);
      }

      .cls-57 {
        clip-path: url(#clippath-21);
      }

      .cls-15 {
        stroke: #000;
        stroke-width: .56px;
      }

      .cls-58 {
        clip-path: url(#clippath-34);
      }

      .cls-59 {
        clip-path: url(#clippath-57);
      }

      .cls-60 {
        clip-path: url(#clippath-1);
      }

      .cls-61 {
        clip-path: url(#clippath-4);
      }

      .cls-62 {
        clip-path: url(#clippath-38);
      }

      .cls-63 {
        clip-path: url(#clippath-36);
      }

      .cls-64 {
        clip-path: url(#clippath-27);
      }

      .cls-65 {
        clip-path: url(#clippath-60);
      }

      .cls-66 {
        clip-path: url(#clippath-44);
      }

      .cls-67 {
        clip-path: url(#clippath-12);
      }

      .cls-68 {
        letter-spacing: 0em;
      }

      .cls-19, .cls-25 {
        stroke: #353f8f;
      }

      .cls-69 {
        clip-path: url(#clippath-24);
      }

      .cls-21, .cls-27 {
        stroke: #c6d8cd;
      }

      .cls-70 {
        clip-path: url(#clippath-30);
      }

      .cls-71 {
        clip-path: url(#clippath-22);
      }

      .cls-72 {
        clip-path: url(#clippath-9);
      }

      .cls-73 {
        clip-path: url(#clippath-52);
      }

      .cls-74 {
        clip-path: url(#clippath);
      }

      .cls-75 {
        clip-path: url(#clippath-50);
      }

      .cls-76 {
        clip-path: url(#clippath-48);
      }

      .cls-77 {
        clip-path: url(#clippath-39);
      }

      .cls-78 {
        clip-path: url(#clippath-19);
      }

      .cls-79 {
        clip-path: url(#clippath-31);
      }

      .cls-80 {
        clip-path: url(#clippath-54);
      }

      .cls-81 {
        clip-path: url(#clippath-3);
      }

      .cls-82 {
        clip-path: url(#clippath-43);
      }

      .cls-83 {
        clip-path: url(#clippath-8);
      }

      .cls-26 {
        stroke-width: 1.5px;
      }

      .cls-84 {
        fill: #2f4f4f;
      }

      .cls-85 {
        clip-path: url(#clippath-55);
      }

      .cls-86 {
        clip-path: url(#clippath-29);
      }

      .cls-87 {
        clip-path: url(#clippath-18);
      }

      .cls-88 {
        clip-path: url(#clippath-14);
      }

      .cls-89 {
        clip-path: url(#clippath-17);
      }

      .cls-90 {
        clip-path: url(#clippath-5);
      }

      .cls-91 {
        clip-path: url(#clippath-58);
      }

      .cls-92 {
        clip-path: url(#clippath-42);
      }

      .cls-93 {
        clip-path: url(#clippath-10);
      }

      .cls-94 {
        clip-path: url(#clippath-23);
      }

      .cls-95 {
        clip-path: url(#clippath-56);
      }

      .cls-96 {
        clip-path: url(#clippath-53);
      }

      .cls-97 {
        clip-path: url(#clippath-49);
      }

      .cls-29, .cls-31 {
        stroke: #85ac95;
      }

      .cls-30, .cls-32 {
        stroke: #659678;
      }

      .cls-98 {
        clip-path: url(#clippath-51);
      }

      .cls-44 {
        fill: #0a1778;
      }

      .cls-99 {
        clip-path: url(#clippath-28);
      }

      .cls-100 {
        clip-path: url(#clippath-35);
      }
    </style>
    <clipPath id="clippath">
      <rect class="cls-22" width="509" height="553.75"/>
    </clipPath>
    <clipPath id="clippath-1">
      <rect class="cls-22" x="245" y="2" width="44" height="44"/>
    </clipPath>
    <clipPath id="clippath-2">
      <rect class="cls-22" x="245" y="2" width="44" height="44"/>
    </clipPath>
    <clipPath id="clippath-3">
      <rect class="cls-22" x="245" y="2" width="44" height="44"/>
    </clipPath>
    <clipPath id="clippath-4">
      <rect class="cls-22" width="509" height="553.75"/>
    </clipPath>
    <clipPath id="clippath-5">
      <rect class="cls-22" x="251" y="77" width="32" height="44"/>
    </clipPath>
    <clipPath id="clippath-6">
      <rect class="cls-22" x="251" y="78" width="32" height="44"/>
    </clipPath>
    <clipPath id="clippath-7">
      <rect class="cls-22" x="251" y="78" width="32" height="44"/>
    </clipPath>
    <clipPath id="clippath-8">
      <rect class="cls-22" width="509" height="553.75"/>
    </clipPath>
    <clipPath id="clippath-9">
      <rect class="cls-22" x="245" y="212" width="44" height="44"/>
    </clipPath>
    <clipPath id="clippath-10">
      <rect class="cls-22" x="245" y="212" width="44" height="44"/>
    </clipPath>
    <clipPath id="clippath-11">
      <rect class="cls-22" x="245" y="212" width="44" height="44"/>
    </clipPath>
    <clipPath id="clippath-12">
      <rect class="cls-22" width="509" height="553.75"/>
    </clipPath>
    <clipPath id="clippath-13">
      <rect class="cls-22" x="251" y="292" width="32" height="44"/>
    </clipPath>
    <clipPath id="clippath-14">
      <rect class="cls-22" x="251" y="293" width="32" height="44"/>
    </clipPath>
    <clipPath id="clippath-15">
      <rect class="cls-22" x="251" y="293" width="32" height="44"/>
    </clipPath>
    <clipPath id="clippath-16">
      <rect class="cls-22" width="509" height="553.75"/>
    </clipPath>
    <clipPath id="clippath-17">
      <rect class="cls-22" x="245" y="412" width="44" height="44"/>
    </clipPath>
    <clipPath id="clippath-18">
      <rect class="cls-22" x="245" y="412" width="44" height="44"/>
    </clipPath>
    <clipPath id="clippath-19">
      <rect class="cls-22" x="245" y="412" width="44" height="44"/>
    </clipPath>
    <clipPath id="clippath-20">
      <rect class="cls-22" width="509" height="553.75"/>
    </clipPath>
    <clipPath id="clippath-21">
      <rect class="cls-22" x="251" y="487" width="32" height="44"/>
    </clipPath>
    <clipPath id="clippath-22">
      <rect class="cls-22" x="251" y="488" width="32" height="44"/>
    </clipPath>
    <clipPath id="clippath-23">
      <rect class="cls-22" x="251" y="488" width="32" height="44"/>
    </clipPath>
    <clipPath id="clippath-24">
      <rect class="cls-22" width="509" height="553.75"/>
    </clipPath>
    <clipPath id="clippath-25">
      <rect class="cls-22" x="123.5" y="267" width="47" height="29"/>
    </clipPath>
    <clipPath id="clippath-26">
      <rect class="cls-22" x="123" y="267" width="47" height="29"/>
    </clipPath>
    <clipPath id="clippath-27">
      <rect class="cls-22" x="123" y="267" width="47" height="29"/>
    </clipPath>
    <clipPath id="clippath-28">
      <rect class="cls-22" width="509" height="553.75"/>
    </clipPath>
    <clipPath id="clippath-29">
      <rect class="cls-22" x="160" y="285.5" width="29" height="47"/>
    </clipPath>
    <clipPath id="clippath-30">
      <rect class="cls-22" x="161" y="285" width="29" height="47"/>
    </clipPath>
    <clipPath id="clippath-31">
      <rect class="cls-22" x="161" y="285" width="29" height="47"/>
    </clipPath>
    <clipPath id="clippath-32">
      <rect class="cls-22" width="509" height="553.75"/>
    </clipPath>
    <clipPath id="clippath-33">
      <rect class="cls-22" x="123.5" y="322" width="47" height="29"/>
    </clipPath>
    <clipPath id="clippath-34">
      <rect class="cls-22" x="125" y="323" width="47" height="29"/>
    </clipPath>
    <clipPath id="clippath-35">
      <rect class="cls-22" x="125" y="323" width="47" height="29"/>
    </clipPath>
    <clipPath id="clippath-36">
      <rect class="cls-22" width="509" height="553.75"/>
    </clipPath>
    <clipPath id="clippath-37">
      <rect class="cls-22" x="312" y="74" width="70" height="50"/>
    </clipPath>
    <clipPath id="clippath-38">
      <rect class="cls-22" x="306" y="72" width="82" height="54"/>
    </clipPath>
    <clipPath id="clippath-39">
      <rect class="cls-22" x="306" y="73" width="82" height="54"/>
    </clipPath>
    <clipPath id="clippath-40">
      <rect class="cls-22" x="306" y="73" width="82" height="54"/>
    </clipPath>
    <clipPath id="clippath-41">
      <rect class="cls-22" width="509" height="553.75"/>
    </clipPath>
    <clipPath id="clippath-42">
      <rect class="cls-22" x="312" y="284" width="70" height="50"/>
    </clipPath>
    <clipPath id="clippath-43">
      <rect class="cls-22" x="306" y="282" width="82" height="54"/>
    </clipPath>
    <clipPath id="clippath-44">
      <rect class="cls-22" x="306" y="282" width="82" height="54"/>
    </clipPath>
    <clipPath id="clippath-45">
      <rect class="cls-22" x="306" y="282" width="82" height="54"/>
    </clipPath>
    <clipPath id="clippath-46">
      <rect class="cls-22" width="509" height="553.75"/>
    </clipPath>
    <clipPath id="clippath-47">
      <rect class="cls-22" x="312" y="484" width="70" height="50"/>
    </clipPath>
    <clipPath id="clippath-48">
      <rect class="cls-22" x="306" y="482" width="82" height="54"/>
    </clipPath>
    <clipPath id="clippath-49">
      <rect class="cls-22" x="306" y="483" width="82" height="54"/>
    </clipPath>
    <clipPath id="clippath-50">
      <rect class="cls-22" x="306" y="483" width="82" height="54"/>
    </clipPath>
    <clipPath id="clippath-51">
      <rect class="cls-22" width="509" height="553.75"/>
    </clipPath>
    <clipPath id="clippath-52">
      <rect class="cls-22" width="509" height="553.75"/>
    </clipPath>
    <clipPath id="clippath-53">
      <rect class="cls-22" width="509" height="553.75"/>
    </clipPath>
    <clipPath id="clippath-54">
      <rect class="cls-22" width="509" height="553.75"/>
    </clipPath>
    <clipPath id="clippath-55">
      <rect class="cls-22" width="509" height="553.75"/>
    </clipPath>
    <clipPath id="clippath-56">
      <rect class="cls-22" width="509" height="553.75"/>
    </clipPath>
    <clipPath id="clippath-57">
      <rect class="cls-22" width="509" height="553.75"/>
    </clipPath>
    <clipPath id="clippath-58">
      <rect class="cls-22" width="509" height="553.75"/>
    </clipPath>
    <clipPath id="clippath-59">
      <rect class="cls-22" width="509" height="553.75"/>
    </clipPath>
    <clipPath id="clippath-60">
      <rect class="cls-22" width="509" height="553.75"/>
    </clipPath>
  </defs>
  <g id="_레이어_1-2" data-name="레이어 1">
    <g class="cls-74">
      <rect class="cls-38" x="247" y="4" width="40" height="40"/>
    </g>
    <g class="cls-60">
      <g class="cls-47">
        <g class="cls-81">
          <line class="cls-24" x1="267.5" y1="44.5" x2="267.5" y2="37.5"/>
          <line class="cls-24" x1="279.51" y1="16.5" x2="254.54" y2="16.5"/>
          <line class="cls-24" x1="267.03" y1="16.5" x2="267.02" y2="7"/>
          <line class="cls-24" x1="272.14" y1="7" x2="262.03" y2="7"/>
          <rect class="cls-24" x="254.54" y="18.54" width="24.98" height="18.46"/>
        </g>
      </g>
    </g>
    <g class="cls-61">
      <rect class="cls-38" x="253" y="79" width="28" height="40"/>
    </g>
    <g class="cls-90">
      <g class="cls-53">
        <g class="cls-56">
          <polyline class="cls-23" points="267.5 79.5 267.5 88.5 267.05 88.62"/>
          <polyline class="cls-23" points="267.05 88.62 272.18 90.58 261.4 94.13 272.18 97.71 261.58 101.1 272.18 104.65 267.05 106.44 261.75 108.22 267.05 110.01"/>
          <line class="cls-23" x1="267.5" y1="110.5" x2="267.5" y2="119.5"/>
          <path class="cls-84" d="M273,85.27v-2.03c0-.44-.04-.78-.13-1.02s-.23-.43-.43-.55c-.2-.13-.41-.19-.64-.19-.34,0-.62,.12-.84,.37-.22,.24-.33,.63-.33,1.16v2.27h2.37Zm4,.95h-7.16v-3.17c0-.65,.07-1.13,.2-1.46,.13-.33,.36-.59,.68-.8,.32-.2,.68-.3,1.08-.3,.51,0,.94,.17,1.28,.5,.34,.33,.57,.84,.67,1.52,.11-.25,.23-.44,.34-.56,.26-.28,.58-.54,.95-.78l1.95-1.25v1.19l-1.48,.95c-.44,.27-.77,.5-.99,.68-.22,.18-.38,.34-.48,.48-.09,.14-.16,.28-.19,.43-.02,.1-.03,.28-.03,.53v1.09h3.17v.95Z"/>
          <path class="cls-84" d="M274.48,112.13l.25-.95c.77,.2,1.36,.55,1.77,1.07,.41,.52,.62,1.15,.62,1.9s-.16,1.4-.48,1.88c-.32,.48-.77,.85-1.37,1.1-.59,.25-1.23,.38-1.92,.38-.74,0-1.39-.14-1.95-.43-.56-.29-.98-.69-1.27-1.22-.29-.53-.43-1.1-.43-1.73,0-.72,.18-1.32,.55-1.81,.36-.49,.88-.83,1.53-1.02l.23,.94c-.52,.17-.9,.41-1.14,.72-.24,.31-.36,.71-.36,1.19,0,.55,.13,1.01,.4,1.38s.62,.63,1.06,.78c.44,.15,.9,.23,1.37,.23,.61,0,1.15-.09,1.6-.27,.45-.18,.79-.45,1.02-.83,.22-.37,.34-.78,.34-1.22,0-.53-.15-.98-.46-1.35-.31-.37-.76-.62-1.37-.74Z"/>
        </g>
      </g>
    </g>
    <g class="cls-83">
      <rect class="cls-38" x="247" y="214" width="40" height="40"/>
    </g>
    <g class="cls-72">
      <g class="cls-93">
        <g class="cls-36">
          <line class="cls-24" x1="267.5" y1="254.5" x2="267.5" y2="247.5"/>
          <line class="cls-24" x1="279.51" y1="226.5" x2="254.54" y2="226.5"/>
          <line class="cls-24" x1="267.03" y1="226.5" x2="267.02" y2="217"/>
          <line class="cls-24" x1="272.14" y1="217" x2="262.03" y2="217"/>
          <rect class="cls-24" x="254.54" y="228.54" width="24.98" height="18.46"/>
        </g>
      </g>
    </g>
    <g class="cls-67">
      <rect class="cls-38" x="253" y="294" width="28" height="40"/>
    </g>
    <g class="cls-48">
      <g class="cls-88">
        <g class="cls-52">
          <polyline class="cls-23" points="267.5 294.5 267.5 303.5 267.05 303.62"/>
          <polyline class="cls-23" points="267.05 303.62 272.18 305.58 261.4 309.13 272.18 312.71 261.58 316.1 272.18 319.65 267.05 321.44 261.75 323.22 267.05 325.01"/>
          <line class="cls-23" x1="267.5" y1="325.5" x2="267.5" y2="334.5"/>
          <path class="cls-84" d="M273,300.27v-2.03c0-.44-.04-.78-.13-1.02s-.23-.43-.43-.55c-.2-.13-.41-.19-.64-.19-.34,0-.62,.12-.84,.37-.22,.24-.33,.63-.33,1.16v2.27h2.37Zm4,.95h-7.16v-3.17c0-.65,.07-1.13,.2-1.46,.13-.33,.36-.59,.68-.8,.32-.2,.68-.3,1.08-.3,.51,0,.94,.17,1.28,.5s.57,.84,.67,1.52c.11-.25,.23-.44,.34-.56,.26-.28,.58-.54,.95-.78l1.95-1.25v1.19l-1.48,.95c-.44,.27-.77,.5-.99,.68-.22,.18-.38,.34-.48,.48-.09,.14-.16,.28-.19,.43-.02,.1-.03,.28-.03,.53v1.09h3.17v.95Z"/>
          <path class="cls-84" d="M274.48,327.13l.25-.95c.77,.2,1.36,.55,1.77,1.07,.41,.52,.62,1.15,.62,1.9s-.16,1.4-.48,1.88c-.32,.48-.77,.85-1.37,1.1-.59,.25-1.23,.38-1.92,.38-.74,0-1.39-.14-1.95-.43-.56-.29-.98-.69-1.27-1.22-.29-.53-.43-1.1-.43-1.73,0-.72,.18-1.32,.55-1.81,.36-.49,.88-.83,1.53-1.02l.23,.94c-.52,.17-.9,.41-1.14,.72-.24,.31-.36,.71-.36,1.19,0,.55,.13,1.01,.4,1.38s.62,.63,1.06,.78c.44,.15,.9,.23,1.37,.23,.61,0,1.15-.09,1.6-.27,.45-.18,.79-.45,1.02-.83,.22-.37,.34-.78,.34-1.22,0-.53-.15-.98-.46-1.35-.31-.37-.76-.62-1.37-.74Z"/>
        </g>
      </g>
    </g>
    <g class="cls-37">
      <rect class="cls-38" x="247" y="414" width="40" height="40"/>
    </g>
    <g class="cls-89">
      <g class="cls-87">
        <g class="cls-78">
          <line class="cls-24" x1="267.5" y1="454.5" x2="267.5" y2="447.5"/>
          <line class="cls-24" x1="279.51" y1="426.5" x2="254.54" y2="426.5"/>
          <line class="cls-24" x1="267.03" y1="426.5" x2="267.02" y2="417"/>
          <line class="cls-24" x1="272.14" y1="417" x2="262.03" y2="417"/>
          <rect class="cls-24" x="254.54" y="428.54" width="24.98" height="18.46"/>
        </g>
      </g>
    </g>
    <g class="cls-35">
      <rect class="cls-38" x="253" y="489" width="28" height="40"/>
    </g>
    <g class="cls-57">
      <g class="cls-71">
        <g class="cls-94">
          <polyline class="cls-23" points="267.5 489.5 267.5 498.5 267.05 498.62"/>
          <polyline class="cls-23" points="267.05 498.62 272.18 500.58 261.4 504.13 272.18 507.71 261.58 511.1 272.18 514.65 267.05 516.44 261.75 518.22 267.05 520.01"/>
          <line class="cls-23" x1="267.5" y1="520.5" x2="267.5" y2="529.5"/>
          <path class="cls-84" d="M273,495.27v-2.03c0-.44-.04-.78-.13-1.02s-.23-.43-.43-.55c-.2-.13-.41-.19-.64-.19-.34,0-.62,.12-.84,.37-.22,.24-.33,.63-.33,1.16v2.27h2.37Zm4,.95h-7.16v-3.17c0-.65,.07-1.13,.2-1.46,.13-.33,.36-.59,.68-.8,.32-.2,.68-.3,1.08-.3,.51,0,.94,.17,1.28,.5,.34,.33,.57,.84,.67,1.52,.11-.25,.23-.44,.34-.56,.26-.28,.58-.54,.95-.78l1.95-1.25v1.19l-1.48,.95c-.44,.27-.77,.5-.99,.68-.22,.18-.38,.34-.48,.48-.09,.14-.16,.28-.19,.43-.02,.1-.03,.28-.03,.53v1.09h3.17v.95Z"/>
          <path class="cls-84" d="M274.48,522.12l.25-.95c.77,.2,1.36,.55,1.77,1.07,.41,.52,.62,1.15,.62,1.9s-.16,1.4-.48,1.88c-.32,.48-.77,.85-1.37,1.1-.59,.25-1.23,.38-1.92,.38-.74,0-1.39-.14-1.95-.43-.56-.29-.98-.69-1.27-1.22-.29-.53-.43-1.1-.43-1.73,0-.72,.18-1.32,.55-1.81,.36-.49,.88-.83,1.53-1.02l.23,.94c-.52,.17-.9,.41-1.14,.72-.24,.31-.36,.71-.36,1.19,0,.55,.13,1.01,.4,1.38,.27,.37,.62,.63,1.06,.78,.44,.15,.9,.23,1.37,.23,.61,0,1.15-.09,1.6-.27,.45-.18,.79-.45,1.02-.83,.22-.37,.34-.78,.34-1.22,0-.53-.15-.98-.46-1.35-.31-.37-.76-.62-1.37-.74Z"/>
        </g>
      </g>
    </g>
    <g class="cls-69">
      <rect class="cls-38" x="127" y="269" width="40" height="25"/>
    </g>
    <g class="cls-51">
      <g class="cls-55">
        <g class="cls-64">
          <polyline class="cls-23" points="137.5 294.5 137.5 281.5 137.09 282.07"/>
          <polyline class="cls-23" points="157.5 294.5 157.5 281.5 157.09 282.07"/>
          <line class="cls-23" x1="147.5" y1="280.5" x2="147.5" y2="269.5"/>
          <rect class="cls-43" x="156.42" y="280.76" width="1.5" height="1.66"/>
          <rect class="cls-13" x="156.42" y="280.75" width="1.5" height="1.66"/>
          <rect class="cls-43" x="136.25" y="280.67" width="1.5" height="1.66"/>
          <rect class="cls-26" x="136.25" y="280.67" width="1.5" height="1.66"/>
          <rect class="cls-43" x="146.42" y="280.76" width="1.5" height="1.66"/>
          <rect class="cls-9" x="146.42" y="280.75" width="1.5" height="1.66"/>
          <line class="cls-9" x1="132" y1="281.58" x2="162.25" y2="281.58"/>
          <path class="cls-84" d="M131.06,290.95v-2.44l-1.98,.75c-.6,.23-1.1,.4-1.48,.52,.46,.08,.91,.21,1.36,.38l2.11,.8Zm2.94,2.06l-7.16-2.75v-1.02l7.16-2.94v1.08l-2.17,.84v2.98l2.17,.8v1Z"/>
          <path class="cls-84" d="M153.16,291.31v-1.78c0-.3-.01-.52-.03-.64-.04-.22-.11-.4-.2-.55-.09-.15-.23-.27-.4-.36-.17-.09-.37-.14-.6-.14-.26,0-.49,.07-.69,.2-.2,.14-.34,.33-.42,.57-.08,.24-.13,.6-.13,1.05v1.64h2.47Zm-3.31,0v-1.55c0-.42-.03-.71-.08-.89-.07-.25-.19-.43-.36-.55-.17-.12-.37-.18-.62-.18s-.45,.06-.62,.17c-.18,.11-.3,.28-.37,.49-.07,.21-.1,.58-.1,1.09v1.42h2.16Zm4.16,.95h-7.16v-2.69c0-.54,.07-.98,.22-1.31,.15-.33,.37-.59,.66-.78,.3-.19,.61-.28,.95-.28,.3,0,.59,.08,.86,.25,.27,.17,.49,.42,.66,.75,.12-.43,.34-.76,.65-.99,.31-.23,.67-.35,1.09-.35,.33,0,.65,.07,.94,.21,.29,.14,.52,.32,.67,.52,.16,.21,.27,.47,.35,.79,.08,.32,.12,.7,.12,1.15v2.73Z"/>
          <path class="cls-84" d="M141.48,271.12l.25-.95c.77,.2,1.36,.55,1.77,1.07,.41,.52,.62,1.15,.62,1.9s-.16,1.4-.48,1.88c-.32,.48-.77,.85-1.37,1.1-.59,.25-1.23,.38-1.92,.38-.74,0-1.39-.14-1.95-.43-.56-.29-.98-.69-1.27-1.22-.29-.53-.43-1.1-.43-1.73,0-.72,.18-1.32,.55-1.81,.36-.49,.88-.83,1.53-1.02l.23,.94c-.52,.17-.9,.41-1.14,.72-.24,.31-.36,.71-.36,1.19,0,.55,.13,1.01,.4,1.38,.27,.37,.62,.63,1.06,.78,.44,.15,.9,.23,1.37,.23,.61,0,1.15-.09,1.6-.27,.45-.18,.79-.45,1.02-.83,.22-.37,.34-.78,.34-1.22,0-.53-.15-.98-.46-1.35-.31-.37-.76-.62-1.37-.74Z"/>
        </g>
      </g>
    </g>
    <g class="cls-99">
      <rect class="cls-38" x="162" y="289" width="25" height="40"/>
    </g>
    <g class="cls-86">
      <g class="cls-70">
        <g class="cls-79">
          <polyline class="cls-23" points="162.5 299.5 174.5 299.5 173.93 299.09"/>
          <polyline class="cls-23" points="162.5 319.5 174.5 319.5 173.93 319.09"/>
          <line class="cls-23" x1="175.5" y1="309.5" x2="187.5" y2="309.5"/>
          <rect class="cls-43" x="173.59" y="318.42" width="1.66" height="1.5"/>
          <rect class="cls-13" x="173.59" y="318.42" width="1.66" height="1.5"/>
          <rect class="cls-43" x="173.67" y="298.25" width="1.66" height="1.5"/>
          <rect class="cls-26" x="173.67" y="298.25" width="1.66" height="1.5"/>
          <rect class="cls-43" x="173.59" y="308.42" width="1.66" height="1.5"/>
          <rect class="cls-9" x="173.59" y="308.42" width="1.66" height="1.5"/>
          <line class="cls-9" x1="174.42" y1="294" x2="174.42" y2="324.25"/>
          <path class="cls-84" d="M165.05,293.06h2.44l-.75-1.98c-.23-.6-.4-1.1-.52-1.48-.08,.46-.21,.91-.38,1.36l-.8,2.11Zm-2.06,2.94l2.75-7.16h1.02l2.94,7.16h-1.08l-.84-2.17h-2.98l-.8,2.17h-1Z"/>
          <path class="cls-84" d="M164.69,315.16h1.78c.3,0,.52-.01,.64-.03,.22-.04,.4-.11,.55-.2,.15-.09,.27-.23,.36-.4,.09-.17,.14-.37,.14-.6,0-.26-.07-.49-.2-.69-.14-.2-.33-.34-.57-.42-.24-.08-.6-.13-1.05-.13h-1.64v2.47Zm0-3.31h1.55c.42,0,.71-.03,.89-.08,.25-.07,.43-.19,.55-.36,.12-.17,.18-.37,.18-.62s-.06-.45-.17-.62c-.11-.18-.28-.3-.49-.37-.21-.07-.58-.1-1.09-.1h-1.42v2.16Zm-.95,4.16v-7.16h2.69c.54,0,.98,.07,1.31,.22,.33,.15,.59,.37,.78,.66,.19,.3,.28,.61,.28,.95,0,.3-.08,.59-.25,.86-.17,.27-.42,.49-.75,.66,.43,.12,.76,.34,.99,.65,.23,.31,.35,.67,.35,1.09,0,.33-.07,.65-.21,.94-.14,.29-.32,.52-.52,.67-.21,.16-.47,.27-.79,.35-.32,.08-.7,.12-1.15,.12h-2.73Z"/>
          <path class="cls-84" d="M184.88,303.48l.95,.25c-.2,.77-.55,1.36-1.07,1.77-.52,.41-1.15,.62-1.9,.62s-1.4-.16-1.88-.48c-.48-.32-.85-.77-1.1-1.37-.25-.59-.38-1.23-.38-1.92,0-.74,.14-1.39,.43-1.95,.29-.56,.69-.98,1.22-1.27,.53-.29,1.1-.43,1.73-.43,.72,0,1.32,.18,1.81,.55,.49,.36,.83,.88,1.02,1.53l-.94,.23c-.17-.52-.41-.9-.72-1.14-.31-.24-.71-.36-1.19-.36-.55,0-1.01,.13-1.38,.4-.37,.27-.63,.62-.78,1.06-.15,.44-.23,.9-.23,1.37,0,.61,.09,1.15,.27,1.6,.18,.45,.45,.79,.83,1.02,.37,.22,.78,.34,1.22,.34,.53,0,.98-.15,1.35-.46,.37-.31,.62-.76,.74-1.37Z"/>
        </g>
      </g>
    </g>
    <g class="cls-46">
      <rect class="cls-38" x="127" y="324" width="40" height="25"/>
    </g>
    <g class="cls-40">
      <g class="cls-58">
        <g class="cls-100">
          <polyline class="cls-23" points="157.5 324.5 157.5 336.5 156.91 335.93"/>
          <polyline class="cls-23" points="137.5 324.5 137.5 336.5 136.91 335.93"/>
          <line class="cls-23" x1="147.5" y1="337.5" x2="147.5" y2="349.5"/>
          <rect class="cls-43" x="136.08" y="335.59" width="1.5" height="1.66"/>
          <rect class="cls-13" x="136.08" y="335.59" width="1.5" height="1.66"/>
          <rect class="cls-43" x="156.25" y="335.67" width="1.5" height="1.66"/>
          <rect class="cls-26" x="156.25" y="335.67" width="1.5" height="1.66"/>
          <rect class="cls-43" x="146.08" y="335.59" width="1.5" height="1.66"/>
          <rect class="cls-9" x="146.08" y="335.59" width="1.5" height="1.66"/>
          <line class="cls-9" x1="162" y1="336.42" x2="131.75" y2="336.42"/>
          <path class="cls-84" d="M164.06,329.95v-2.44l-1.98,.75c-.6,.23-1.1,.4-1.48,.52,.46,.08,.91,.21,1.36,.38l2.11,.8Zm2.94,2.06l-7.16-2.75v-1.02l7.16-2.94v1.08l-2.17,.84v2.98l2.17,.8v1Z"/>
          <path class="cls-84" d="M146.16,330.31v-1.78c0-.3-.01-.52-.03-.64-.04-.22-.11-.4-.2-.55-.09-.15-.23-.27-.4-.36-.17-.09-.37-.14-.6-.14-.26,0-.49,.07-.69,.2-.2,.14-.34,.33-.42,.57-.08,.24-.13,.6-.13,1.05v1.64h2.47Zm-3.31,0v-1.55c0-.42-.03-.71-.08-.89-.07-.25-.19-.43-.36-.55-.17-.12-.37-.18-.62-.18s-.45,.06-.62,.17c-.18,.11-.3,.28-.37,.49-.07,.21-.1,.58-.1,1.09v1.42h2.16Zm4.16,.95h-7.16v-2.69c0-.54,.07-.98,.22-1.31,.15-.33,.37-.59,.66-.78,.3-.19,.61-.28,.95-.28,.3,0,.59,.08,.86,.25,.27,.17,.49,.42,.66,.75,.12-.43,.34-.76,.65-.99,.31-.23,.67-.35,1.09-.35,.33,0,.65,.07,.94,.21,.29,.14,.52,.32,.67,.52,.16,.21,.27,.47,.35,.79,.08,.32,.12,.7,.12,1.15v2.73Z"/>
          <path class="cls-84" d="M154.48,342.12l.25-.95c.77,.2,1.36,.55,1.77,1.07,.41,.52,.62,1.15,.62,1.9s-.16,1.4-.48,1.88c-.32,.48-.77,.85-1.37,1.1-.59,.25-1.23,.38-1.92,.38-.74,0-1.39-.14-1.95-.43-.56-.29-.98-.69-1.27-1.22-.29-.53-.43-1.1-.43-1.73,0-.72,.18-1.32,.55-1.81,.36-.49,.88-.83,1.53-1.02l.23,.94c-.52,.17-.9,.41-1.14,.72-.24,.31-.36,.71-.36,1.19,0,.55,.13,1.01,.4,1.38s.62,.63,1.06,.78c.44,.15,.9,.23,1.37,.23,.61,0,1.15-.09,1.6-.27,.45-.18,.79-.45,1.02-.83,.22-.37,.34-.78,.34-1.22,0-.53-.15-.98-.46-1.35-.31-.37-.76-.62-1.37-.74Z"/>
        </g>
      </g>
    </g>
    <g class="cls-63">
      <g class="cls-49">
        <rect class="cls-38" x="312" y="74" width="70" height="50"/>
      </g>
    </g>
    <g class="cls-62">
      <g class="cls-77">
        <g class="cls-54">
          <line class="cls-8" x1="367.8" y1="103.38" x2="365.2" y2="103.38"/>
          <line class="cls-8" x1="366.5" y1="94" x2="366.5" y2="96.5"/>
          <line class="cls-8" x1="367.8" y1="95.25" x2="365.2" y2="95.25"/>
          <line class="cls-8" x1="367.5" y1="92.5" x2="367.5" y2="74.5"/>
          <line class="cls-8" x1="367.5" y1="105.5" x2="367.5" y2="124.5"/>
          <ellipse class="cls-3" cx="366.5" cy="99" rx="6.5" ry="6.25"/>
          <line class="cls-23" x1="327.5" y1="90.5" x2="327.5" y2="74.5"/>
          <line class="cls-23" x1="327.5" y1="107.5" x2="327.5" y2="124.5"/>
          <line class="cls-23" x1="327.5" y1="105.88" x2="327.5" y2="99"/>
          <polygon class="cls-23" points="332.7 99 322.3 99 327.5 93.38 332.7 99"/>
          <rect class="cls-23" x="317.75" y="90.25" width="19.5" height="17.5"/>
          <line class="cls-8" x1="357.4" y1="99" x2="353.5" y2="99"/>
          <line class="cls-8" x1="339.85" y1="99" x2="343.75" y2="99"/>
          <line class="cls-8" x1="350.25" y1="99" x2="346.35" y2="99"/>
          <polygon class="cls-84" points="375.84 78.5 373.88 78.5 373.88 80.44 373.06 80.44 373.06 78.5 371.11 78.5 371.11 77.67 373.06 77.67 373.06 75.72 373.88 75.72 373.88 77.67 375.84 77.67 375.84 78.5"/>
          <path class="cls-84" d="M333,80.27v-2.03c0-.44-.04-.78-.13-1.02-.09-.24-.23-.43-.43-.55-.2-.13-.41-.19-.64-.19-.34,0-.62,.12-.84,.37-.22,.24-.33,.63-.33,1.16v2.27h2.37Zm4,.95h-7.16v-3.17c0-.65,.07-1.13,.2-1.46,.13-.33,.36-.59,.68-.8,.32-.2,.68-.3,1.08-.3,.51,0,.94,.17,1.28,.5,.34,.33,.57,.84,.67,1.52,.11-.25,.23-.44,.34-.56,.26-.28,.58-.54,.95-.78l1.95-1.25v1.19l-1.48,.95c-.44,.27-.77,.5-.99,.68-.22,.18-.38,.34-.48,.48-.09,.14-.16,.28-.19,.43-.02,.1-.03,.28-.03,.53v1.09h3.17v.95Z"/>
          <rect class="cls-84" x="373.97" y="119.98" width=".88" height="2.7"/>
          <path class="cls-84" d="M334.48,117.13l.25-.95c.77,.2,1.36,.55,1.77,1.07,.41,.52,.62,1.15,.62,1.9s-.16,1.4-.48,1.88c-.32,.48-.77,.85-1.37,1.1-.59,.25-1.23,.38-1.92,.38-.74,0-1.39-.14-1.95-.43-.56-.29-.98-.69-1.27-1.22-.29-.53-.43-1.1-.43-1.73,0-.72,.18-1.32,.55-1.81,.36-.49,.88-.83,1.53-1.02l.23,.94c-.52,.17-.9,.41-1.14,.72-.24,.31-.36,.71-.36,1.19,0,.55,.13,1.01,.4,1.38s.62,.63,1.06,.78c.44,.15,.9,.23,1.37,.23,.61,0,1.15-.09,1.6-.27,.45-.18,.79-.45,1.02-.83,.22-.37,.34-.78,.34-1.22,0-.53-.15-.98-.46-1.35-.31-.37-.76-.62-1.37-.74Z"/>
        </g>
      </g>
    </g>
    <g class="cls-45">
      <g class="cls-92">
        <rect class="cls-38" x="312" y="284" width="70" height="50"/>
      </g>
    </g>
    <g class="cls-82">
      <g class="cls-66">
        <g class="cls-34">
          <line class="cls-8" x1="367.8" y1="304.63" x2="365.2" y2="304.63"/>
          <line class="cls-8" x1="366.5" y1="314" x2="366.5" y2="311.5"/>
          <line class="cls-8" x1="367.8" y1="312.75" x2="365.2" y2="312.75"/>
          <line class="cls-8" x1="367.5" y1="315.5" x2="367.5" y2="334.5"/>
          <line class="cls-8" x1="367.5" y1="302.5" x2="367.5" y2="284.5"/>
          <ellipse class="cls-3" cx="366.5" cy="309" rx="6.5" ry="6.25"/>
          <line class="cls-23" x1="327.5" y1="317.5" x2="327.5" y2="334.5"/>
          <line class="cls-23" x1="327.5" y1="300.5" x2="327.5" y2="284.5"/>
          <line class="cls-23" x1="327.5" y1="302.13" x2="327.5" y2="309"/>
          <polygon class="cls-23" points="332.7 309 322.3 309 327.5 314.63 332.7 309"/>
          <rect class="cls-23" x="317.75" y="300.25" width="19.5" height="17.5"/>
          <line class="cls-8" x1="357.4" y1="309" x2="353.5" y2="309"/>
          <line class="cls-8" x1="339.85" y1="309" x2="343.75" y2="309"/>
          <line class="cls-8" x1="350.25" y1="309" x2="346.35" y2="309"/>
          <polygon class="cls-84" points="375.84 330.5 373.88 330.5 373.88 332.44 373.06 332.44 373.06 330.5 371.11 330.5 371.11 329.67 373.06 329.67 373.06 327.72 373.88 327.72 373.88 329.67 375.84 329.67 375.84 330.5"/>
          <path class="cls-84" d="M333,331.27v-2.03c0-.44-.04-.78-.13-1.02-.09-.24-.23-.43-.43-.55-.2-.13-.41-.19-.64-.19-.34,0-.62,.12-.84,.37-.22,.24-.33,.63-.33,1.16v2.27h2.37Zm4,.95h-7.16v-3.17c0-.65,.07-1.13,.2-1.46,.13-.33,.36-.59,.68-.8,.32-.2,.68-.3,1.08-.3,.51,0,.94,.17,1.28,.5s.57,.84,.67,1.52c.11-.25,.23-.44,.34-.56,.26-.28,.58-.54,.95-.78l1.95-1.25v1.19l-1.48,.95c-.44,.27-.77,.5-.99,.68-.22,.18-.38,.34-.48,.48-.09,.14-.16,.28-.19,.43-.02,.1-.03,.28-.03,.53v1.09h3.17v.95Z"/>
          <rect class="cls-84" x="373.97" y="284.98" width=".88" height="2.7"/>
          <path class="cls-84" d="M334.48,286.13l.25-.95c.77,.2,1.36,.55,1.77,1.07,.41,.52,.62,1.15,.62,1.9s-.16,1.4-.48,1.88c-.32,.48-.77,.85-1.37,1.1-.59,.25-1.23,.38-1.92,.38-.74,0-1.39-.14-1.95-.43-.56-.29-.98-.69-1.27-1.22-.29-.53-.43-1.1-.43-1.73,0-.72,.18-1.32,.55-1.81,.36-.49,.88-.83,1.53-1.02l.23,.94c-.52,.17-.9,.41-1.14,.72-.24,.31-.36,.71-.36,1.19,0,.55,.13,1.01,.4,1.38s.62,.63,1.06,.78c.44,.15,.9,.23,1.37,.23,.61,0,1.15-.09,1.6-.27,.45-.18,.79-.45,1.02-.83,.22-.37,.34-.78,.34-1.22,0-.53-.15-.98-.46-1.35-.31-.37-.76-.62-1.37-.74Z"/>
        </g>
      </g>
    </g>
    <g class="cls-50">
      <g class="cls-41">
        <rect class="cls-38" x="312" y="484" width="70" height="50"/>
      </g>
    </g>
    <g class="cls-76">
      <g class="cls-97">
        <g class="cls-75">
          <line class="cls-8" x1="367.8" y1="513.38" x2="365.2" y2="513.38"/>
          <line class="cls-8" x1="366.5" y1="504" x2="366.5" y2="506.5"/>
          <line class="cls-8" x1="367.8" y1="505.25" x2="365.2" y2="505.25"/>
          <line class="cls-8" x1="367.5" y1="502.5" x2="367.5" y2="484.5"/>
          <line class="cls-8" x1="367.5" y1="515.5" x2="367.5" y2="534.5"/>
          <ellipse class="cls-3" cx="366.5" cy="509" rx="6.5" ry="6.25"/>
          <line class="cls-23" x1="327.5" y1="500.5" x2="327.5" y2="484.5"/>
          <line class="cls-23" x1="327.5" y1="517.5" x2="327.5" y2="534.5"/>
          <line class="cls-23" x1="327.5" y1="515.88" x2="327.5" y2="509"/>
          <polygon class="cls-23" points="332.7 509 322.3 509 327.5 503.38 332.7 509"/>
          <rect class="cls-23" x="317.75" y="500.25" width="19.5" height="17.5"/>
          <line class="cls-8" x1="357.4" y1="509" x2="353.5" y2="509"/>
          <line class="cls-8" x1="339.85" y1="509" x2="343.75" y2="509"/>
          <line class="cls-8" x1="350.25" y1="509" x2="346.35" y2="509"/>
          <polygon class="cls-84" points="375.84 488.5 373.88 488.5 373.88 490.44 373.06 490.44 373.06 488.5 371.11 488.5 371.11 487.67 373.06 487.67 373.06 485.72 373.88 485.72 373.88 487.67 375.84 487.67 375.84 488.5"/>
          <path class="cls-84" d="M333,490.27v-2.03c0-.44-.04-.78-.13-1.02-.09-.24-.23-.43-.43-.55-.2-.13-.41-.19-.64-.19-.34,0-.62,.12-.84,.37-.22,.24-.33,.63-.33,1.16v2.27h2.37Zm4,.95h-7.16v-3.17c0-.65,.07-1.13,.2-1.46,.13-.33,.36-.59,.68-.8,.32-.2,.68-.3,1.08-.3,.51,0,.94,.17,1.28,.5,.34,.33,.57,.84,.67,1.52,.11-.25,.23-.44,.34-.56,.26-.28,.58-.54,.95-.78l1.95-1.25v1.19l-1.48,.95c-.44,.27-.77,.5-.99,.68-.22,.18-.38,.34-.48,.48-.09,.14-.16,.28-.19,.43-.02,.1-.03,.28-.03,.53v1.09h3.17v.95Z"/>
          <rect class="cls-84" x="373.97" y="529.98" width=".88" height="2.7"/>
          <path class="cls-84" d="M334.48,527.12l.25-.95c.77,.2,1.36,.55,1.77,1.07,.41,.52,.62,1.15,.62,1.9s-.16,1.4-.48,1.88c-.32,.48-.77,.85-1.37,1.1-.59,.25-1.23,.38-1.92,.38-.74,0-1.39-.14-1.95-.43-.56-.29-.98-.69-1.27-1.22-.29-.53-.43-1.1-.43-1.73,0-.72,.18-1.32,.55-1.81,.36-.49,.88-.83,1.53-1.02l.23,.94c-.52,.17-.9,.41-1.14,.72-.24,.31-.36,.71-.36,1.19,0,.55,.13,1.01,.4,1.38,.27,.37,.62,.63,1.06,.78,.44,.15,.9,.23,1.37,.23,.61,0,1.15-.09,1.6-.27,.45-.18,.79-.45,1.02-.83,.22-.37,.34-.78,.34-1.22,0-.53-.15-.98-.46-1.35-.31-.37-.76-.62-1.37-.74Z"/>
        </g>
      </g>
    </g>
    <g class="cls-98">
      <polygon class="cls-38" points="2 279 9.5 272 24.5 272 32 279 24.5 286 9.5 286 2 279"/>
    </g>
    <text class="cls-1" transform="translate(14.23 282.5)"><tspan x="0" y="0">1</tspan></text>
    <g class="cls-73">
      <polygon class="cls-15" points="2 279 9.5 272 24.5 272 32 279 24.5 286 9.5 286 2 279"/>
    </g>
    <g class="cls-96">
      <polygon class="cls-38" points="507 279 499.5 286 484.5 286 477 279 484.5 272 499.5 272 507 279"/>
    </g>
    <text class="cls-1" transform="translate(7.15 299)"><tspan x="0" y="0">m</tspan><tspan class="cls-68" x="8.33" y="0">e</tspan><tspan x="13.88" y="0">+</tspan></text>
    <text class="cls-1" transform="translate(489.23 282.5)"><tspan x="0" y="0">3</tspan></text>
    <g class="cls-80">
      <polygon class="cls-15" points="507 279 499.5 286 484.5 286 477 279 484.5 272 499.5 272 507 279"/>
    </g>
    <g class="cls-85">
      <polygon class="cls-38" points="2 349 9.5 342 24.5 342 32 349 24.5 356 9.5 356 2 349"/>
    </g>
    <text class="cls-1" transform="translate(483.81 299)"><tspan class="cls-68" x="0" y="0">a</tspan><tspan x="5.55" y="0">c+</tspan></text>
    <text class="cls-1" transform="translate(14.23 352.5)"><tspan x="0" y="0">2</tspan></text>
    <g class="cls-95">
      <polygon class="cls-15" points="2 349 9.5 342 24.5 342 32 349 24.5 356 9.5 356 2 349"/>
    </g>
    <g class="cls-59">
      <polygon class="cls-38" points="507 349 499.5 356 484.5 356 477 349 484.5 342 499.5 342 507 349"/>
    </g>
    <text class="cls-1" transform="translate(8.4 369)"><tspan x="0" y="0">m</tspan><tspan class="cls-68" x="8.33" y="0">e</tspan><tspan x="13.88" y="0">-</tspan></text>
    <text class="cls-1" transform="translate(489.23 352.5)"><tspan x="0" y="0">4</tspan></text>
    <g class="cls-91">
      <polygon class="cls-15" points="507 349 499.5 356 484.5 356 477 349 484.5 342 499.5 342 507 349"/>
    </g>
    <g class="cls-39">
      <path class="cls-6" d="M225.1,276.61c0-1.25,1.25-2.5,2.5-2.5h39.5m-44.5,35.04c1.25,0,2.5-1.25,2.5-2.5v-30.04m-39.12,32.54h36.62"/>
      <path class="cls-6" d="M324.6,274.11h-57.5m60,2.5c0-1.25-1.25-2.5-2.5-2.5m2.5,11.04v-8.54"/>
    </g>
    <text class="cls-1" transform="translate(485.06 369)"><tspan class="cls-68" x="0" y="0">a</tspan><tspan x="5.55" y="0">c-</tspan></text>
    <g class="cls-65">
      <line class="cls-6" x1="267.1" y1="252.99" x2="267.1" y2="274.11"/>
      <line class="cls-6" x1="267.1" y1="274.12" x2="267.1" y2="294.99"/>
      <path class="cls-42" d="M268.75,274.11c0,.91-.74,1.65-1.65,1.65s-1.65-.74-1.65-1.65,.74-1.65,1.65-1.65,1.65,.74,1.65,1.65Z"/>
      <line class="cls-4" x1="267.1" y1="64.12" x2="267.1" y2="80.2"/>
      <path class="cls-4" d="M149.6,64.11h117.5m-120,2.5c0-1.25,1.25-2.5,2.5-2.5m-2.5,205.92V66.61"/>
      <path class="cls-4" d="M324.6,64.12h-57.5m60,2.5c0-1.25-1.25-2.5-2.5-2.5m2.5,11.04v-8.54"/>
      <line class="cls-4" x1="267.1" y1="42.99" x2="267.1" y2="64.11"/>
      <path class="cls-42" d="M268.75,64.11c0,.91-.74,1.65-1.65,1.65s-1.65-.74-1.65-1.65,.74-1.65,1.65-1.65,1.65,.74,1.65,1.65Z"/>
      <line class="cls-7" x1="267.1" y1="468.99" x2="267.1" y2="490.11"/>
      <path class="cls-7" d="M324.6,468.99h-57.5m60,2.5c0-1.25-1.25-2.5-2.5-2.5m2.5,16.08v-13.58"/>
      <line class="cls-7" x1="267.1" y1="453.15" x2="267.1" y2="468.99"/>
      <path class="cls-7" d="M147.1,466.49c0,1.25,1.25,2.5,2.5,2.5h117.5m-120-95.25v92.75m0-118.46v24.21"/>
      <line class="cls-7" x1="147.1" y1="367.24" x2="147.1" y2="368.24"/>
      <line class="cls-30" x1="147.1" y1="368.24" x2="147.1" y2="369.24"/>
      <line class="cls-31" x1="147.1" y1="369.24" x2="147.1" y2="370.24"/>
      <line class="cls-20" x1="147.1" y1="370.24" x2="147.1" y2="371.24"/>
      <line class="cls-27" x1="147.1" y1="371.24" x2="147.1" y2="372.24"/>
      <line class="cls-7" x1="147.1" y1="378.74" x2="147.1" y2="377.74"/>
      <line class="cls-30" x1="147.1" y1="377.74" x2="147.1" y2="376.74"/>
      <line class="cls-31" x1="147.1" y1="376.74" x2="147.1" y2="375.74"/>
      <line class="cls-20" x1="147.1" y1="375.74" x2="147.1" y2="374.74"/>
      <line class="cls-27" x1="147.1" y1="374.74" x2="147.1" y2="373.74"/>
      <path class="cls-42" d="M268.75,468.99c0,.91-.74,1.65-1.65,1.65s-1.65-.74-1.65-1.65,.74-1.65,1.65-1.65,1.65,.74,1.65,1.65Z"/>
      <line class="cls-10" x1="137.02" y1="293.07" x2="137.02" y2="309.15"/>
      <path class="cls-10" d="M89.64,279.15H30.94m61.2,2.5c0-1.25-1.25-2.5-2.5-2.5m2.5,27.5v-25m2.5,27.5c-1.25,0-2.5-1.25-2.5-2.5m44.88,2.5h-42.38"/>
      <line class="cls-10" x1="137.02" y1="309.15" x2="137.02" y2="324.99"/>
      <path class="cls-42" d="M138.67,309.15c0,.91-.74,1.65-1.65,1.65s-1.65-.74-1.65-1.65,.74-1.65,1.65-1.65,1.65,.74,1.65,1.65Z"/>
      <path class="cls-14" d="M159.44,318.99h3.5m-6,2.5c0-1.25,1.25-2.5,2.5-2.5m-2.5,6v-3.5"/>
      <path class="cls-14" d="M159.44,299.07h3.5m-6-2.5c0,1.25,1.25,2.5,2.5,2.5m-2.5-6v3.5"/>
      <path class="cls-14" d="M324.6,549.15h-57.5m60-2.5c0,1.25-1.25,2.5-2.5,2.5m2.5-16.08v13.58"/>
      <path class="cls-14" d="M195.1,468.24v-95.25m2.5,176.16c-1.25,0-2.5-1.25-2.5-2.5v-76.91m72,79.41h-69.5"/>
      <line class="cls-14" x1="195.1" y1="474.74" x2="195.1" y2="473.74"/>
      <line class="cls-32" x1="195.1" y1="473.74" x2="195.1" y2="472.74"/>
      <line class="cls-29" x1="195.1" y1="472.74" x2="195.1" y2="471.74"/>
      <line class="cls-5" x1="195.1" y1="471.74" x2="195.1" y2="470.74"/>
      <line class="cls-21" x1="195.1" y1="470.74" x2="195.1" y2="469.74"/>
      <line class="cls-14" x1="195.1" y1="463.24" x2="195.1" y2="464.24"/>
      <line class="cls-32" x1="195.1" y1="464.24" x2="195.1" y2="465.24"/>
      <line class="cls-29" x1="195.1" y1="465.24" x2="195.1" y2="466.24"/>
      <line class="cls-5" x1="195.1" y1="466.24" x2="195.1" y2="467.24"/>
      <line class="cls-21" x1="195.1" y1="467.24" x2="195.1" y2="468.24"/>
      <line class="cls-14" x1="195.1" y1="372.99" x2="195.1" y2="348.99"/>
      <line class="cls-14" x1="267.1" y1="348.99" x2="195.1" y2="348.99"/>
      <path class="cls-14" d="M324.6,348.99h-57.5m60-2.5c0,1.25-1.25,2.5-2.5,2.5m2.5-15.84v13.34"/>
      <line class="cls-14" x1="267.1" y1="348.99" x2="267.1" y2="333.15"/>
      <path class="cls-14" d="M195.1,309.9v39.09m2.5-210c-1.25,0-2.5,1.25-2.5,2.5v166.91m72-169.41h-69.5"/>
      <line class="cls-14" x1="195.1" y1="303.4" x2="195.1" y2="304.4"/>
      <line class="cls-32" x1="195.1" y1="304.4" x2="195.1" y2="305.4"/>
      <line class="cls-29" x1="195.1" y1="305.4" x2="195.1" y2="306.4"/>
      <line class="cls-5" x1="195.1" y1="306.4" x2="195.1" y2="307.4"/>
      <line class="cls-21" x1="195.1" y1="307.4" x2="195.1" y2="308.4"/>
      <line class="cls-14" x1="195.1" y1="314.9" x2="195.1" y2="313.9"/>
      <line class="cls-32" x1="195.1" y1="313.9" x2="195.1" y2="312.9"/>
      <line class="cls-29" x1="195.1" y1="312.9" x2="195.1" y2="311.9"/>
      <line class="cls-5" x1="195.1" y1="311.9" x2="195.1" y2="310.9"/>
      <line class="cls-21" x1="195.1" y1="310.9" x2="195.1" y2="309.9"/>
      <path class="cls-14" d="M324.6,138.99h-57.5m60-2.5c0,1.25-1.25,2.5-2.5,2.5m2.5-15.84v13.34"/>
      <line class="cls-14" x1="267.1" y1="138.99" x2="267.1" y2="118.11"/>
      <path class="cls-14" d="M56.14,351.49c0-1.25-1.25-2.5-2.5-2.5H30.94m27.7,24c-1.25,0-2.5-1.25-2.5-2.5v-19m138.96,21.5H58.64"/>
      <line class="cls-14" x1="267.1" y1="549.15" x2="267.1" y2="528.03"/>
      <path class="cls-42" d="M196.75,372.99c0,.91-.74,1.65-1.65,1.65s-1.65-.74-1.65-1.65,.74-1.65,1.65-1.65,1.65,.74,1.65,1.65Z"/>
      <path class="cls-42" d="M196.75,348.99c0,.91-.74,1.65-1.65,1.65s-1.65-.74-1.65-1.65,.74-1.65,1.65-1.65,1.65,.74,1.65,1.65Z"/>
      <path class="cls-42" d="M268.75,348.99c0,.91-.74,1.65-1.65,1.65s-1.65-.74-1.65-1.65,.74-1.65,1.65-1.65,1.65,.74,1.65,1.65Z"/>
      <path class="cls-42" d="M268.75,138.99c0,.91-.74,1.65-1.65,1.65s-1.65-.74-1.65-1.65,.74-1.65,1.65-1.65,1.65,.74,1.65,1.65Z"/>
      <path class="cls-42" d="M268.75,549.15c0,.91-.74,1.65-1.65,1.65s-1.65-.74-1.65-1.65,.74-1.65,1.65-1.65,1.65,.74,1.65,1.65Z"/>
      <path class="cls-28" d="M426.94,66.61v212.54m-2.5-215.04c1.25,0,2.5,1.25,2.5,2.5m-57.5-2.5h55m-57.5,2.5c0-1.25,1.25-2.5,2.5-2.5m-2.5,11.04v-8.54"/>
      <line class="cls-28" x1="426.94" y1="279.15" x2="478.06" y2="279.15"/>
      <path class="cls-28" d="M426.94,348.24v-69.09m-2.5,155.04c1.25,0,2.5-1.25,2.5-2.5v-81.95m-60,86.95c0-1.25,1.25-2.5,2.5-2.5h55m-57.5,50.88v-48.38"/>
      <line class="cls-28" x1="426.94" y1="354.74" x2="426.94" y2="353.74"/>
      <line class="cls-25" x1="426.94" y1="353.74" x2="426.94" y2="352.74"/>
      <line class="cls-17" x1="426.94" y1="352.74" x2="426.94" y2="351.74"/>
      <line class="cls-12" x1="426.94" y1="351.74" x2="426.94" y2="350.74"/>
      <line class="cls-11" x1="426.94" y1="350.74" x2="426.94" y2="349.74"/>
      <line class="cls-28" x1="426.94" y1="343.24" x2="426.94" y2="344.24"/>
      <line class="cls-25" x1="426.94" y1="344.24" x2="426.94" y2="345.24"/>
      <line class="cls-17" x1="426.94" y1="345.24" x2="426.94" y2="346.24"/>
      <line class="cls-12" x1="426.94" y1="346.24" x2="426.94" y2="347.24"/>
      <line class="cls-11" x1="426.94" y1="347.24" x2="426.94" y2="348.24"/>
      <path class="cls-28" d="M366.94,281.65c0-1.25,1.25-2.5,2.5-2.5h57.5m-60,6v-3.5"/>
      <path class="cls-44" d="M428.59,279.15c0,.91-.74,1.65-1.65,1.65s-1.65-.74-1.65-1.65,.74-1.65,1.65-1.65,1.65,.74,1.65,1.65Z"/>
      <path class="cls-33" d="M369.44,348.99h26.54m-29.04-2.5c0,1.25,1.25,2.5,2.5,2.5m-2.5-15.84v13.34"/>
      <line class="cls-33" x1="395.98" y1="348.99" x2="478.06" y2="348.99"/>
      <path class="cls-33" d="M395.98,433.44v-84.45m-2.5,199.2c1.25,0,2.5-1.25,2.5-2.5v-110.75m-29.04,110.75c0,1.25,1.25,2.5,2.5,2.5h24.04m-26.54-15.12v12.62"/>
      <line class="cls-33" x1="395.98" y1="439.94" x2="395.98" y2="438.94"/>
      <line class="cls-19" x1="395.98" y1="438.94" x2="395.98" y2="437.94"/>
      <line class="cls-2" x1="395.98" y1="437.94" x2="395.98" y2="436.94"/>
      <line class="cls-16" x1="395.98" y1="436.94" x2="395.98" y2="435.94"/>
      <line class="cls-18" x1="395.98" y1="435.94" x2="395.98" y2="434.94"/>
      <line class="cls-33" x1="395.98" y1="428.44" x2="395.98" y2="429.44"/>
      <line class="cls-19" x1="395.98" y1="429.44" x2="395.98" y2="430.44"/>
      <line class="cls-2" x1="395.98" y1="430.44" x2="395.98" y2="431.44"/>
      <line class="cls-16" x1="395.98" y1="431.44" x2="395.98" y2="432.44"/>
      <line class="cls-18" x1="395.98" y1="432.44" x2="395.98" y2="433.44"/>
      <path class="cls-33" d="M395.98,279.9v69.09m-2.5-210.96c1.25,0,2.5,1.25,2.5,2.5v137.87m-29.04-142.87c0,1.25,1.25,2.5,2.5,2.5h24.04m-26.54-14.88v12.38"/>
      <line class="cls-33" x1="395.98" y1="273.4" x2="395.98" y2="274.4"/>
      <line class="cls-19" x1="395.98" y1="274.4" x2="395.98" y2="275.4"/>
      <line class="cls-2" x1="395.98" y1="275.4" x2="395.98" y2="276.4"/>
      <line class="cls-16" x1="395.98" y1="276.4" x2="395.98" y2="277.4"/>
      <line class="cls-18" x1="395.98" y1="277.4" x2="395.98" y2="278.4"/>
      <line class="cls-33" x1="395.98" y1="284.9" x2="395.98" y2="283.9"/>
      <line class="cls-19" x1="395.98" y1="283.9" x2="395.98" y2="282.9"/>
      <line class="cls-2" x1="395.98" y1="282.9" x2="395.98" y2="281.9"/>
      <line class="cls-16" x1="395.98" y1="281.9" x2="395.98" y2="280.9"/>
      <line class="cls-18" x1="395.98" y1="280.9" x2="395.98" y2="279.9"/>
      <path class="cls-44" d="M397.63,348.99c0,.91-.74,1.65-1.65,1.65s-1.65-.74-1.65-1.65,.74-1.65,1.65-1.65,1.65,.74,1.65,1.65Z"/>
    </g>
  </g>
</svg>